# xmcd
#
# Track frame offsets: 
#        150
#        13150
#        23774
#        39070
#        54997
#        73797
#        91077
#        109488
#        129227
#        154871
#
# Disc length: 2225 seconds
#
# Revision: 0
# Processed by: cddbd v1.5.2PL0 Copyright (c) Steve Scherf et al.
# Submitted via: ExactAudioCopy v0.99pb3
#
DISCID=7508af0a
DTITLE=Kirk Baldwin With Beats Workin' - Twenty Four Seven
DYEAR=2010
DGENRE=Blues
TTITLE0=24-7 True Lovin'
TTITLE1=Mother Road
TTITLE2=I Love My Baby
TTITLE3=Closer To You
TTITLE4=The Picture
TTITLE5=Mother Earth
TTITLE6=Why Do You Treat Me Like You Do
TTITLE7=Habitation
TTITLE8=Whiskey By 1PM
TTITLE9=Back In Chicago
EXTD=
EXTT0=
EXTT1=
EXTT2=
EXTT3=
EXTT4=
EXTT5=
EXTT6=
EXTT7=
EXTT8=
EXTT9=
PLAYORDER=
